inDegrees=no
num_controls=7
num_derivatives=13
num_iterations=106
num_multipliers=7
num_parameters=0
num_slacks=7
num_states=26
objective=0.445636
objective_accelerations=0.057790
objective_balance=0.003616
objective_effort=0.022977
objective_height=0.355718
objective_ligament=0.005535
solver_duration=1433.496813
status=Solve_Succeeded
success=true
DataType=double
version=3
OpenSimVersion=4.5
endheader
time	/jointset/ground_pelvis/pelvis_tilt/value	/jointset/ground_pelvis/pelvis_tx/value	/jointset/ground_pelvis/pelvis_ty/value	/jointset/hip_l/hip_flexion_l/value	/jointset/hip_l/hip_adduction_l/value	/jointset/hip_l/hip_rotation_l/value	/jointset/back/lumbar_extension/value	/jointset/patellofemoral_l/patellar_flexion_l/value	/jointset/knee_l/knee_flexion_l/value	/jointset/knee_l/knee_adduction_l/value	/jointset/knee_l/knee_rotation_l/value	/jointset/ankle_l/ankle_angle_l/value	/jointset/subtalar_l/subtalar_angle_l/value	/jointset/ground_pelvis/pelvis_tilt/speed	/jointset/ground_pelvis/pelvis_tx/speed	/jointset/ground_pelvis/pelvis_ty/speed	/jointset/hip_l/hip_flexion_l/speed	/jointset/hip_l/hip_adduction_l/speed	/jointset/hip_l/hip_rotation_l/speed	/jointset/back/lumbar_extension/speed	/jointset/patellofemoral_l/patellar_flexion_l/speed	/jointset/knee_l/knee_flexion_l/speed	/jointset/knee_l/knee_adduction_l/speed	/jointset/knee_l/knee_rotation_l/speed	/jointset/ankle_l/ankle_angle_l/speed	/jointset/subtalar_l/subtalar_angle_l/speed	/forceset/tau_hip_flexion_l	/forceset/tau_hip_adduction_l	/forceset/tau_hip_rotation_l	/forceset/tau_knee_flexion_l	/forceset/tau_ankle_angle_l	/forceset/tau_subtalar_angle_l	/forceset/tau_lumbar_extension	lambda_cid13_p0	lambda_cid13_p1	lambda_cid13_p2	lambda_cid13_p3	lambda_cid13_p4	lambda_cid13_p5	lambda_cid14_p0	/jointset/ground_pelvis/pelvis_tilt/accel	/jointset/ground_pelvis/pelvis_tx/accel	/jointset/ground_pelvis/pelvis_ty/accel	/jointset/hip_l/hip_flexion_l/accel	/jointset/hip_l/hip_adduction_l/accel	/jointset/hip_l/hip_rotation_l/accel	/jointset/back/lumbar_extension/accel	/jointset/patellofemoral_l/patellar_flexion_l/accel	/jointset/knee_l/knee_flexion_l/accel	/jointset/knee_l/knee_adduction_l/accel	/jointset/knee_l/knee_rotation_l/accel	/jointset/ankle_l/ankle_angle_l/accel	/jointset/subtalar_l/subtalar_angle_l/accel	gamma_cid13_p0	gamma_cid13_p1	gamma_cid13_p2	gamma_cid13_p3	gamma_cid13_p4	gamma_cid13_p5	gamma_cid14_p0
0	-0.03974684689109942	0.06901173799155863	0.8959597908919202	0.1955287580552426	-0.3219134098565153	-0.4852571184883416	-0.1379045077516729	0.07015288079084885	0.07015288079084844	-0.1745326335314289	-0.1196301399865614	-0.06701059314715049	0.003941036491106142	0	0	0	0	0	0	0	0	0	0	0	0	0	0.1079752677936688	-0.09911090048059154	-0.03088681308152748	-0.2367596023426215	0.1966821098379031	-0.01731529778279275	-0.05260724136681071	27.38035958118177	-0.4477087831111037	3.360519965104917	-1.2177250741463	-515.3332865481849	-79.44556249957725	-39.9625731443648	-4.523010005784081	-1.846476922397838	-0.9784057393722861	12.61729753338679	-2.112223425789141	3.347424893004895	-2.843872540570982	10.20622642350675	10.20622642350982	0.7003433335447479	-0.8315716385836762	2.311619100321674	-1.060032536526696	-3.262195630434449e-08	9.801057297864434e-08	1.22123795159536e-07	1.574823757657332e-08	-3.724855698789139e-08	-5.000260533537991e-08	-8.37345157232303e-09
0.01	-0.03996249365434651	0.06892037073109164	0.8959122782932635	0.1961392760981892	-0.3220173798104358	-0.4850888373059475	-0.1380525467532654	0.07064878180036484	0.0706487818003791	-0.174501041433639	-0.1196654512506914	-0.06690004290399242	0.003887051129191053	-0.04290216388157776	-0.01821978545239765	-0.009472861257440061	0.1215749908635225	-0.0206906735103445	0.03353821950743006	-0.02934441034772349	0.09874825640248097	0.09874825640249042	0.006304358880332111	-0.007007024927236946	0.02198465411146692	-0.01075341834190774	0.1021380304447639	-0.0995262715597803	-0.02959591358727465	-0.2282496438892244	0.1833461105331132	-0.01129753484594144	-0.04784998215756985	23.2962523106418	-2.345182171112625	3.661950910216403	0.6994162957477512	-516.0987016557173	-83.54729354016246	-39.97261650681162	-4.139751192222532	-1.801676210825773	-0.9272849975759235	11.84829655415792	-2.032019797021585	3.339303410706	-2.940216786192801	9.644335098190211	9.644335098189714	0.5934040811677291	-0.6269705607637106	2.123079914316191	-1.076477789191574	-6.918386359938055e-08	1.438446070703192e-07	1.97928117951245e-07	5.02320451578424e-08	-2.477666273109894e-07	-9.060956649493195e-08	-1.251205793083317e-08
0.02	-0.04060034837898446	0.06864841624526771	0.8957709253463032	0.197949683388019	-0.3223251625961314	-0.4845887173422509	-0.1384861281592021	0.07211920734382098	0.07211920734382024	-0.1744068213637481	-0.1197691732922773	-0.06657340785016796	0.003726835322623128	-0.08444159227826077	-0.03611744507139068	-0.01876806966071773	0.2399778493799691	-0.04076256635527013	0.06636775625861724	-0.05710848086823592	0.1949049067878192	0.1949049067878214	0.01252559439626937	-0.01368215549327543	0.04321696213321329	-0.02124608893056846	0.09630079309563266	-0.09994164263896832	-0.02830501409313841	-0.2197396854359313	0.1700101112282776	-0.005279771909112847	-0.04309272294847645	19.2752814935665	-4.254506133808378	3.966181303081753	2.462037582348524	-515.9378012846904	-87.48483009828982	-40.00217954436996	-4.250462908805148	-1.7820517557169	-0.942875168539814	11.98287106397159	-1.988467292705447	3.205688341756316	-2.527804575128765	9.6879052200782	9.687905220077928	0.6837186606655993	-0.7651927663439894	2.161149882377558	-1.007882985877381	-1.057457708944166e-07	1.89678641161994e-07	2.737324407429539e-07	8.471585273911148e-08	-4.582846976340875e-07	-1.31216527654484e-07	-1.665066428934331e-08
0.03	-0.0416477074574179	0.06819958425982742	0.8955372168445644	0.2009290553650674	-0.3228304329040824	-0.4837642913815717	-0.1391889991179244	0.07453876090968316	0.07453876090967988	-0.1742505892309228	-0.119938502762129	-0.06603746161796806	0.00346354238306618	-0.1248311109171804	-0.05354363860224563	-0.02796409884973581	0.3553364031070132	-0.06017550987148713	0.09837526279339878	-0.0832238390333034	0.2885614385563917	0.2885614385564095	0.01869888053525243	-0.02013694285660673	0.06389839853615314	-0.0313283305783826	0.09218671637260312	-0.09665051767130581	-0.02768118511370988	-0.2162920787204504	0.1666123087036617	-0.005169363866496942	-0.03959916989074743	18.22528420204549	-4.183071657457637	4.028423740292207	2.513928955512987	-515.8658965346237	-86.67978059640946	-40.05005930725616	-3.903341878954421	-1.707089057105202	-0.9066295260076419	11.22830618219706	-1.900360098355388	3.176920763820308	-2.617120660759383	9.137875327929191	9.137875327931891	0.580904064120721	-0.578569968675462	2.010556551325389	-0.9958302191563927	-1.346663468679932e-07	2.042515252101851e-07	3.293190485031966e-07	1.117698626436672e-07	-6.264200555533978e-07	-1.673254020019652e-07	-2.108650665303072e-08
0.04	-0.04309299082974458	0.06757965315801148	0.8952118155045504	0.2050452046104154	-0.3235263630906503	-0.4826240625646485	-0.1401457675030088	0.0778815494277639	0.07788154942776428	-0.1740332701419784	-0.1201709697550903	-0.06529691781532396	0.003101939934046489	-0.1640264510568566	-0.07033726834651799	-0.03710663731573723	0.4673333030391085	-0.07889454207872582	0.1295283275074287	-0.1078879661409149	0.3795518972322615	0.3795518972323036	0.02474298561847414	-0.02630966011384863	0.08413647622202074	-0.04090799082311686	0.08807263964961287	-0.0933593927036524	-0.02705735613423542	-0.2128444720049692	0.1632145061790431	-0.005058955823892749	-0.03610561683297765	17.23299964966577	-4.121553849310621	4.092032596250444	2.422418605367466	-514.9517745039565	-85.71987959693577	-40.11474025780132	-4.011627208956442	-1.65553899840038	-0.9321770239364817	11.31054030498181	-1.849685030909807	3.034799977605996	-2.237558363637552	9.154690601537681	9.154690601539142	0.6578824495132752	-0.7087787451261132	2.072478138963101	-0.9073667052614339	-1.634293696184468e-07	2.181798494636651e-07	3.844887961596977e-07	1.386706808435483e-07	-7.936815431138673e-07	-2.033415322914657e-07	-2.552847759414446e-08
0.05	-0.04492496705370146	0.06679483949945103	0.8947949711760632	0.2102660175445428	-0.3244059729283806	-0.4811767599379982	-0.1413412485913697	0.08212178858951556	0.08212178858951755	-0.1737559242896732	-0.1204642578163801	-0.064356020550555	0.002647189565561653	-0.2021645009334789	-0.08652726739134683	-0.04627086389040577	0.5762813534040543	-0.09690282166893262	0.1598003698481386	-0.130977057857652	0.4680473205494168	0.4680473205493846	0.03069818901627466	-0.03228996141721882	0.1039540827139416	-0.0499582434162282	0.08330922694727086	-0.08989908077800156	-0.02630473213858277	-0.2091046997071856	0.1589061722240602	-0.004597035125624832	-0.03221596846444358	15.95193653472871	-4.163892075362895	4.174205441937954	2.643305356991074	-514.1062067431538	-84.968620408908	-40.19433230348028	-3.684261512806266	-1.585973009873164	-0.9100008884557204	10.60472339742602	-1.757769155825939	3.003580474598358	-2.309905524614054	8.629681153127853	8.629681153115712	0.560220149455596	-0.5339082014415248	1.923064226447623	-0.8913558476022849	-1.813330629325652e-07	2.201645970184757e-07	4.208037783753865e-07	1.558590297134173e-07	-8.987440598239268e-07	-2.272149187243795e-07	-2.865277563857983e-08
0.06	-0.04713219730358328	0.06585107731997247	0.8942861934989845	0.2165598681813494	-0.3254619395085624	-0.4794307020654798	-0.1427606847866837	0.08723352457570176	0.08723352457570097	-0.1734198502304736	-0.1208155993664048	-0.06321961475643853	0.002104436408892421	-0.2390772562417419	-0.1021269725301389	-0.05549330703402398	0.6819408435760028	-0.1141658905691336	0.1892793766806429	-0.1526789875312776	0.5538512621195085	0.5538512621193911	0.03648862699575981	-0.03792035786055183	0.1232381820915044	-0.05850854845999225	0.07854581424486604	-0.08643876885234869	-0.02555210814293893	-0.2053649274094297	0.1545978382690676	-0.004135114427359887	-0.02832632009595505	14.72263252679896	-4.214170720211319	4.256362827943007	2.734264703859811	-512.5052884734575	-84.07559913896814	-40.28671469442939	-3.766568295284577	-1.537480217193029	-0.9438203377264184	10.65282826638236	-1.700642892908652	2.876192875964889	-1.960125955015221	8.616394252124985	8.616394252124254	0.6249293658501696	-0.6387977731186818	1.965776716091475	-0.8073771953919949	-1.987795213230484e-07	2.216464571333424e-07	4.563248757304094e-07	1.726384325062332e-07	-1.001187672498179e-06	-2.505770317317529e-07	-3.172159271894453e-08
0.07000000000000001	-0.04970322426190817	0.06475423539479663	0.8936846529864436	0.2238954506076063	-0.326686834426911	-0.4773941446877054	-0.1443894670151769	0.09319094182330109	0.09319094182329933	-0.173026455745749	-0.1212222118254487	-0.06189265601240679	0.00147885425764869	-0.2749197377651524	-0.1171422931600285	-0.06483709809949213	0.7846313701324089	-0.1306828725895326	0.2178974197244185	-0.1728578228670369	0.6371858330822228	0.637185833082107	0.04215732417908526	-0.04334728259146618	0.1420624443514447	-0.06652019865500634	0.07345772098406567	-0.08332025729602836	-0.02476834347148096	-0.2019624571085136	0.1502195631220024	-0.003204010956880405	-0.02424888460849286	13.47400982624705	-4.448471075939336	4.349168792960816	2.878744585766847	-511.0816718521533	-83.56363807430418	-40.38948955359614	-3.461838692120236	-1.468655353063895	-0.9332053640321221	9.995497611316329	-1.607757860197697	2.834345288233214	-2.013817027788138	8.12504175218716	8.12504175218784	0.5329864404331149	-0.4863511638506694	1.827077471527167	-0.7849919894337751	-2.062675923394626e-07	2.048642534631343e-07	4.738045984872875e-07	1.79267360182024e-07	-1.048529358823167e-06	-2.641829650104075e-07	-3.432097059195255e-08
0.08	-0.05262642615771798	0.06351022078988648	0.8929889651886329	0.2322416048516365	-0.3280730055661817	-0.4750754598255641	-0.1462134485380145	0.09996831542729342	0.09996831542729737	-0.172577344980022	-0.1216814357999615	-0.06038018934765919	0.0007757689928792581	-0.3095122437385998	-0.1315615084770037	-0.07432276408796598	0.8840552071306769	-0.1464211347536201	0.2457048735541665	-0.191718846400069	0.7178425333986385	0.7178425333985272	0.04763188319678558	-0.04844266095329539	0.1603397662346596	-0.07400917116512701	0.06836962772327267	-0.08020174573970472	-0.02398457879999217	-0.198559986807593	0.1458412879749423	-0.002272907486394891	-0.02017144912103154	12.27078353380198	-4.68922681482201	4.441298657713934	2.909011102364343	-508.9922108368908	-82.92586679172149	-40.50011545903043	-3.516573185291938	-1.418259154610168	-0.9721953223275586	9.999490354754705	-1.544898921646362	2.714075033159387	-1.696563594469791	8.080820122865283	8.08082012286515	0.5861017327251223	-0.5724884993016579	1.856388640746383	-0.7028416584133165	-2.131131867510982e-07	1.869037230971149e-07	4.901203615926723e-07	1.852414184954261e-07	-1.092316082157879e-06	-2.771594673388222e-07	-3.689006206448595e-08
0.09	-0.05589017518797339	0.06212497584602499	0.8921974995345126	0.2415673142525449	-0.3296127170747846	-0.4724830431960601	-0.1482186668484074	0.1075400070573889	0.1075400070573915	-0.1720741995416762	-0.122190660799055	-0.05868726747740275	5.746052386494525e-07	-0.3430307692377334	-0.1453857319958715	-0.08400265791231921	0.9805489957259395	-0.1613867434080304	0.2726462649900362	-0.2091140561964066	0.7960512749350236	0.7960512749350086	0.05296189014793051	-0.05334590996057394	0.1781533520385462	-0.08093834527113709	0.06311783066444372	-0.0770239041107859	-0.02321596852850673	-0.1957103321573734	0.1419692432250009	-0.001376166458948815	-0.01600822752800883	11.20944083174016	-4.93280814095347	4.52577611963152	2.911919755725913	-507.168212948777	-82.26103589361742	-40.61588940624158	-3.23848109825705	-1.349204560778305	-0.9709492598004721	9.39364598012952	-1.452290421219492	2.664273476827726	-1.729385749878233	7.624230935765389	7.624230935779929	0.5012386103254682	-0.4407095804324769	1.730148932393954	-0.6743345905573419	-2.119549005236986e-07	1.520266192272743e-07	4.904174188565379e-07	1.826093089749573e-07	-1.093246445270242e-06	-2.820550783683882e-07	-3.926734112949274e-08
